<svg width="24" height="24" viewBox="0 0 24 24" fill="none" xmlns="http://www.w3.org/2000/svg">
<g id="SVG" clip-path="url(#clip0_9_619)">
<g id="Icons/account/ic_account">
<path id="Oval-8" fill-rule="evenodd" clip-rule="evenodd" d="M12 22C6.47715 22 2 17.5228 2 12C2 6.47715 6.47715 2 12 2C17.5228 2 22 6.47715 22 12C22 17.5228 17.5228 22 12 22ZM13.4504 14.5983C13.4504 14.7799 13.422 14.9479 13.3652 15.1025C13.3085 15.2571 13.2234 15.3908 13.1099 15.5037C12.9965 15.6165 12.8558 15.7049 12.6879 15.7687C12.5201 15.8325 12.3251 15.8644 12.1028 15.8644C11.909 15.8644 11.7187 15.8361 11.5319 15.7797C11.3452 15.7233 11.1785 15.6251 11.0319 15.4853C10.8853 15.3454 10.7683 15.159 10.6809 14.9259C10.5934 14.6928 10.5496 14.402 10.5496 14.0536H8.5C8.5 14.6425 8.58511 15.1479 8.75532 15.5699C8.92553 15.9919 9.15248 16.3416 9.43617 16.6188C9.71986 16.8961 10.0449 17.1083 10.4113 17.2555C10.7778 17.4027 11.1572 17.4984 11.5496 17.5426V19H12.6773V17.5352C13.1028 17.4911 13.4894 17.3929 13.8369 17.2408C14.1844 17.0887 14.4811 16.8875 14.727 16.6372C14.9728 16.387 15.1631 16.0901 15.2979 15.7466C15.4326 15.4031 15.5 15.0154 15.5 14.5836C15.5 14.1076 15.4255 13.6954 15.2766 13.347C15.1277 12.9986 14.9184 12.6931 14.6489 12.4306C14.3794 12.1681 14.0567 11.9362 13.6809 11.735C13.305 11.5338 12.8877 11.3375 12.4291 11.1462C12.1454 11.0284 11.9078 10.9143 11.7163 10.8039C11.5248 10.6935 11.3712 10.5757 11.2553 10.4506C11.1395 10.3254 11.0579 10.1893 11.0106 10.0421C10.9634 9.89485 10.9397 9.73046 10.9397 9.5489C10.9397 9.36733 10.9634 9.19804 11.0106 9.04101C11.0579 8.88398 11.1312 8.74781 11.2305 8.63249C11.3298 8.51717 11.4563 8.42639 11.6099 8.36015C11.7636 8.2939 11.9468 8.26078 12.1596 8.26078C12.552 8.26078 12.8652 8.40676 13.0993 8.69874C13.3333 8.99071 13.4504 9.43112 13.4504 10.02H15.5C15.5 9.52926 15.4374 9.0864 15.3121 8.69138C15.1868 8.29635 15.0083 7.95408 14.7766 7.66456C14.5449 7.37504 14.2636 7.1395 13.9326 6.95794C13.6017 6.77637 13.2329 6.65615 12.8262 6.59727V5H11.6915V6.57518C11.266 6.61935 10.8818 6.72117 10.539 6.88065C10.1962 7.04013 9.90189 7.24746 9.65603 7.50263C9.41016 7.7578 9.22104 8.05713 9.08865 8.40063C8.95626 8.74413 8.89007 9.12443 8.89007 9.54154C8.89007 10.0224 8.96454 10.4371 9.11347 10.7855C9.26241 11.1339 9.47163 11.4381 9.74113 11.6982C10.0106 11.9583 10.3345 12.1877 10.7128 12.3864C11.091 12.5852 11.5118 12.7753 11.9752 12.9569C12.2447 13.0599 12.4728 13.1654 12.6596 13.2734C12.8463 13.3814 12.9988 13.4991 13.117 13.6267C13.2352 13.7543 13.3203 13.8966 13.3723 14.0536C13.4243 14.2107 13.4504 14.3922 13.4504 14.5983Z" fill="black" fill-opacity="0.54"/>
</g>
</g>
<defs>
<clipPath id="clip0_9_619">
<rect width="24" height="24" fill="white"/>
</clipPath>
</defs>
</svg>
