<svg width="18" height="18" viewBox="0 0 18 18" fill="none" xmlns="http://www.w3.org/2000/svg">
<path fill-rule="evenodd" clip-rule="evenodd" d="M13.0393 11.6247L12.8033 11.8607L11.9213 10.9787C12.8027 9.89008 13.3333 8.50675 13.3333 7.00008C13.3333 3.50808 10.492 0.666748 7 0.666748C3.508 0.666748 0.666668 3.50808 0.666668 7.00008C0.666668 10.4921 3.508 13.3334 7 13.3334C8.50667 13.3334 9.89 12.8027 10.9787 11.9214L11.8607 12.8034L11.6247 13.0394L15.626 17.0407L17.04 15.6267L13.0393 11.6247ZM7.00067 11.3334C4.61133 11.3334 2.66733 9.38941 2.66733 7.00008C2.66733 4.61075 4.61133 2.66675 7.00067 2.66675C9.39 2.66675 11.334 4.61075 11.334 7.00008C11.334 9.38941 9.38933 11.3334 7.00067 11.3334Z" fill="gray"/>
</svg>
